<!-- Generated by SVGMaker - https://svgmaker.io --><!-- Prompt: Create an icon RFP EZ app that will fit in a  circular icon --><!-- Quality: medium --><!-- Type: generate --><!-- Revised Prompt: in vector style, Create an icon RFP EZ app that will fit in a  circular icon, colorful cartoon style, limited color palette with 2-4 distinct colors, simple icon-style image, centered single subject --><!-- Created: 2025-10-04T03:44:26.478Z --><svg version="1.1" xmlns="http://www.w3.org/2000/svg" style="display: block;" viewBox="0 0 2048 2048" width="1024" height="1024" preserveAspectRatio="none">
<path transform="translate(0,0)" fill="rgb(69,46,28)" d="M 197.836 692.235 C 257.206 543.741 356.193 414.391 484.011 318.277 C 674.685 173.909 915.21 111.86 1151.93 145.975 C 1327.16 171.807 1490.98 248.431 1623.13 366.373 C 1644.57 385.412 1664.67 405.428 1684.58 426.048 C 1687.97 429.549 1690.86 432.532 1693.8 436.436 C 1702.67 445.735 1726.53 473.134 1732.85 483.756 C 1741.94 492.911 1781.41 550.351 1786.14 561.53 C 1793.24 571.348 1802.45 588.979 1808.36 599.706 C 1841.83 660.495 1863.74 718.772 1882.83 785.169 C 1884.05 790.113 1886.55 799.264 1887.01 804.049 C 1890.48 814.73 1893.55 831.441 1895.83 842.897 C 1909.97 907.282 1917.64 1019.28 1910.42 1085.2 C 1904.33 1176.48 1884.22 1266.27 1850.8 1351.43 C 1844.85 1366.51 1835.71 1388.91 1828.45 1403.15 C 1818.48 1428.37 1794.23 1470.58 1779.62 1493.57 C 1712.27 1601.52 1622.72 1693.9 1516.93 1764.59 C 1506.57 1771.44 1477.43 1791.91 1467.67 1795.4 C 1357.07 1862.15 1216 1900.96 1087.92 1910.51 C 1083.45 1911.51 1061.49 1912.05 1055.6 1912.24 C 995.269 1914.62 934.854 1910.8 875.303 1900.85 C 719.138 1875.38 572.882 1807.78 452.291 1705.34 C 407.258 1667.64 356.08 1615.17 321.686 1567.23 C 313.527 1559.09 285.946 1517.54 279.32 1507.13 C 190.967 1368.32 148.785 1229.43 137.634 1067.12 C 135.295 1047.96 135.711 988.357 137.68 968.958 C 143.417 875.273 162.096 779.298 197.836 692.235 z"></path>
<path transform="translate(0,0)" fill="rgb(21,12,6)" d="M 137.634 1067.12 C 137.755 1063.83 137.403 1060.96 138.741 1058.25 C 142.806 1075.47 142.379 1100.06 144.702 1119.86 C 161.322 1261.5 210.031 1398.48 289.676 1516.98 C 293.73 1523.01 322.59 1564.08 322.774 1567.07 L 321.686 1567.23 C 313.527 1559.09 285.946 1517.54 279.32 1507.13 C 190.967 1368.32 148.785 1229.43 137.634 1067.12 z"></path>
<path transform="translate(0,0)" fill="rgb(21,12,6)" d="M 1087.92 1910.51 C 1085.82 1910.1 1085.64 1910.02 1083.65 1909.35 C 1086.95 1907.71 1158.53 1900.02 1170.82 1897.93 C 1234.36 1887.6 1296.56 1870.27 1356.29 1846.26 C 1373.06 1839.55 1381.21 1837.23 1398.79 1828.01 C 1418.75 1817.54 1445.21 1806.05 1465.45 1794.75 C 1466.19 1794.97 1466.93 1795.19 1467.67 1795.4 C 1357.07 1862.15 1216 1900.96 1087.92 1910.51 z"></path>
<path transform="translate(0,0)" fill="rgb(21,12,6)" d="M 1828.45 1403.15 C 1826.94 1396.91 1836.49 1378.08 1839.63 1370.67 C 1846.22 1355.3 1852.36 1339.74 1858.07 1324.01 C 1879.04 1265.92 1891.04 1213.67 1900.24 1152.35 C 1902.3 1138.9 1904.06 1125.4 1905.53 1111.87 C 1906.18 1105.5 1907.53 1081.96 1908.96 1077.89 C 1910.61 1080.27 1910.14 1081.81 1910.42 1085.2 C 1904.33 1176.48 1884.22 1266.27 1850.8 1351.43 C 1844.85 1366.51 1835.71 1388.91 1828.45 1403.15 z"></path>
<path transform="translate(0,0)" fill="rgb(21,12,6)" d="M 197.836 692.235 L 199.674 692.727 C 197.996 700.954 192.614 714.117 189.642 722.489 C 184.968 735.802 180.625 749.229 176.615 762.757 C 159.661 818.548 148.524 875.943 143.382 934.026 C 142.685 942.025 141.104 974.205 139.357 979.164 C 137.388 977.079 137.736 972.094 137.68 968.958 C 143.417 875.273 162.096 779.298 197.836 692.235 z"></path>
<path transform="translate(0,0)" fill="rgb(21,12,6)" d="M 1882.83 785.169 L 1881.34 787.376 L 1879.94 786.251 C 1872.34 762.737 1865.93 739.007 1857.57 715.674 C 1844.27 678.552 1827.24 642.507 1809.03 607.552 C 1804.18 598.239 1784.79 569.807 1786.14 561.53 C 1793.24 571.348 1802.45 588.979 1808.36 599.706 C 1841.83 660.495 1863.74 718.772 1882.83 785.169 z"></path>
<path transform="translate(0,0)" fill="rgb(21,12,6)" d="M 1732.85 483.756 L 1731.97 484.092 C 1730 483.527 1729.63 483.664 1728.23 481.879 C 1713.65 463.233 1697.28 445.602 1682.48 427.208 L 1683.22 427.101 C 1687.33 430.422 1689.99 432.802 1693.8 436.436 C 1702.67 445.735 1726.53 473.134 1732.85 483.756 z"></path>
<path transform="translate(0,0)" fill="rgb(49,27,19)" d="M 1887.01 804.049 C 1890.48 814.73 1893.55 831.441 1895.83 842.897 L 1894.78 842.677 C 1889.72 837.38 1884.19 810.255 1887.01 804.049 z"></path>
<path transform="translate(0,0)" fill="rgb(72,136,164)" d="M 1002.14 191.454 C 1188.1 186.132 1370.58 242.656 1520.97 352.169 C 1696.93 479.312 1814.57 671.695 1847.56 886.264 C 1883.63 1114.02 1826.11 1346.68 1688.07 1531.38 C 1688.32 1517.06 1688.48 1502.74 1688.55 1488.41 L 1688.5 1267.45 L 1688.61 1200.25 C 1688.62 1178.48 1689.21 1151.4 1684.74 1130.44 C 1680.41 1109.36 1669.92 1090.03 1654.59 1074.92 C 1621.5 1041.96 1585.64 1041.9 1542.91 1041.92 L 1486.21 1042 L 1486.25 637.243 L 1486.4 528.572 C 1486.43 505.165 1487.65 477.341 1483.87 454.618 C 1475.35 403.349 1434.64 364.266 1384.08 354.466 C 1372.74 352.268 1359.18 352.642 1347.56 352.123 C 1290.32 351.98 1232.86 352.072 1175.62 352.072 L 838.427 352.078 L 690.281 352.078 C 631.41 352.094 576.785 344.356 531.143 389.15 C 485.925 433.527 493.882 486.944 493.962 544.207 L 493.928 694.253 L 493.922 1237.5 L 493.938 1415.22 C 493.927 1491.65 478.999 1574.99 559.544 1617.48 C 592.649 1634.94 626.968 1631.42 663.217 1631.37 L 748.697 1631.33 L 1019.23 1631.34 L 1379.99 1631.32 L 1482.69 1631.33 C 1519.27 1631.38 1574.33 1633.66 1608.05 1623.69 C 1595.17 1634.69 1582.13 1647.31 1569.07 1658.63 C 1554.04 1671.48 1538.48 1683.72 1522.45 1695.31 C 1385.11 1796.04 1220.24 1852.37 1049.97 1856.74 C 825.746 1863.09 618.052 1788.42 454.719 1633.85 C 291.659 1477.48 197.144 1262.92 191.838 1037.06 C 185.249 820.625 265.195 610.489 413.982 453.165 C 566.954 290.512 778.905 196.201 1002.14 191.454 z"></path>
<path transform="translate(0,0)" fill="rgb(247,235,208)" d="M 1009.52 1575.88 L 731.459 1575.85 L 656.769 1575.94 C 642.616 1575.96 620.171 1576.68 606.797 1574.46 C 593.441 1572.31 581.068 1566.12 571.35 1556.7 C 553.775 1539.8 549.337 1522.46 549.259 1498.74 C 549.013 1423.96 549.189 1349.02 549.184 1274.25 L 549.172 826.88 L 549.154 591.801 L 549.091 520.015 C 549.075 487.48 545.719 453.69 570.913 428.397 C 589.512 409.725 611.791 405.443 637.281 405.446 C 690.255 405.453 743.312 405.553 796.327 405.547 L 1127.74 405.494 L 1279.44 405.533 C 1301.2 405.511 1322.99 405.536 1344.73 405.569 C 1369.8 405.607 1390.23 410.764 1408.84 428.326 C 1436.02 453.971 1430 496.557 1429.97 530.974 L 1429.93 640.588 L 1429.95 1042.17 C 1370.86 1041.3 1311.09 1042.36 1251.93 1041.99 C 1206.54 1042.08 1161.04 1041.78 1115.66 1041.98 C 1079.34 1042.13 1047.76 1051.92 1022.15 1078.48 C 992.944 1108.78 992.019 1147.08 991.901 1186.62 C 991.769 1202.69 991.856 1218.77 992.161 1234.84 L 992.039 1323.73 C 992.042 1337.98 991.434 1357.64 992.158 1371.53 C 991.55 1383.26 991.323 1401.17 991.952 1413.01 C 994.41 1459.27 983.777 1536.26 1009.52 1575.88 z"></path>
<path transform="translate(0,0)" fill="rgb(69,46,28)" d="M 664.283 525.193 C 665.431 509.584 672.891 504.127 688.346 502.883 C 701.187 501.849 715.422 502.283 728.395 502.473 C 771.926 503.111 829.186 495.299 858.003 536.616 C 887.477 578.875 883.22 653.1 837.653 683.246 C 832.352 686.792 826.898 689.802 821.477 693.004 C 834.033 714.898 846.854 736.64 859.936 758.224 C 866.683 769.479 893.593 804.077 872.965 812.636 C 866.032 815.513 831.913 816.75 825.799 813.457 C 815.189 807.74 793.97 766.529 787.929 756.127 C 776.571 736.572 764.487 717.871 754.659 698.86 C 748.223 698.775 734.192 697.166 730.147 700.958 L 729.902 704.9 C 729.954 718.272 731.053 792.303 728.794 800.26 C 724.368 821.709 675.317 821.672 666.294 803.983 C 661.167 788.068 663.436 556.109 664.283 525.193 z"></path>
<path transform="translate(0,0)" fill="rgb(21,12,6)" d="M 664.283 525.193 L 666.217 526.077 C 667.63 533.797 667.166 557.588 667.151 566.414 L 666.799 647.159 L 666.926 749.282 C 666.929 765.641 667.308 787.849 666.294 803.983 C 661.167 788.068 663.436 556.109 664.283 525.193 z"></path>
<path transform="translate(0,0)" fill="rgb(21,12,6)" d="M 729.902 704.9 C 729.954 718.272 731.053 792.303 728.794 800.26 C 724.974 793.188 727.913 729.004 727.529 715.511 C 727.476 713.659 729.265 707.12 729.902 704.9 z"></path>
<path transform="translate(0,0)" fill="rgb(247,235,208)" d="M 730.093 561.186 C 737.504 561.111 747.038 561.302 754.039 560.979 C 784.369 559.58 815.966 562.152 813.954 601.391 C 813.276 614.619 810.483 619.824 801.784 629.741 C 783.316 645.417 754.287 641.401 730.005 641.261 L 730.093 561.186 z"></path>
<path transform="translate(0,0)" fill="rgb(69,46,28)" d="M 1156.73 503.155 C 1158.37 503.052 1160.01 502.972 1161.65 502.914 C 1178.57 502.4 1196.63 502.589 1213.58 502.579 C 1248.93 502.436 1285.43 500.997 1312.75 527.375 C 1349.98 563.327 1351.62 634.177 1314.76 671.073 C 1283.21 702.648 1242.7 699.075 1201.75 698.895 C 1199.2 698.71 1200.09 698.585 1197.61 699.59 C 1195.26 704.558 1198.14 757.957 1197.12 767.641 C 1196.44 778.561 1198.74 796.73 1195.07 806.702 C 1189.7 821.305 1161.02 821.146 1149.09 816.69 C 1141.08 813.696 1138.24 805.34 1138.14 797.423 C 1137.49 747.798 1138.01 698.111 1137.96 648.465 L 1137.86 568.968 C 1137.85 554.535 1137.59 540.067 1138.09 525.645 C 1138.59 511.34 1143.59 506.728 1156.73 503.155 z"></path>
<path transform="translate(0,0)" fill="rgb(247,235,208)" d="M 1196.91 561.076 C 1203.69 561.146 1213.41 561.325 1219.77 561.013 C 1249.56 559.549 1280.63 563.647 1279.03 601.536 C 1278.48 614.385 1275.99 619.524 1267.75 629.353 C 1249.77 645.741 1221.37 641.252 1196.87 641.375 L 1196.91 561.076 z"></path>
<path transform="translate(0,0)" fill="rgb(69,46,28)" d="M 676.544 917.302 C 703.24 916.403 735.159 917.284 762.42 917.293 L 933.318 917.339 L 1122.97 917.316 C 1156.96 917.284 1191.05 917.152 1225.03 917.349 C 1229.51 917.681 1238.86 917.672 1242.59 920.017 C 1254.53 927.535 1255.17 941.132 1253.33 953.614 C 1251.45 966.39 1245.72 971.944 1233.25 974 L 871.23 974.041 L 742.394 974.063 C 721.145 974.071 700.017 974.25 678.664 974.007 C 665.487 974.15 655.7 967.541 653.932 953.824 C 651.467 934.7 656.299 920.782 676.544 917.302 z"></path>
<path transform="translate(0,0)" fill="rgb(69,46,28)" d="M 982.634 806.058 C 980.518 811.865 974.478 817.242 968.276 818.229 C 912.037 827.179 919.562 802.273 919.586 759.401 L 919.62 691.191 L 919.703 574.368 C 919.771 558.019 919.48 541.723 919.709 525.375 C 919.879 513.228 926.448 504.352 939.27 504.155 C 983.168 503.477 1027.36 503.503 1071.25 504.295 C 1088.62 504.609 1093.18 516.63 1094.06 531.992 C 1096.75 570.599 1066.28 565.276 1038.53 565.249 L 984.007 565.134 L 984.038 631.384 L 1029.01 631.232 C 1050.9 631.175 1077.75 627.631 1079.13 657.871 C 1080.82 695.094 1062.2 693.536 1031.99 693.16 C 1016.58 692.968 999.65 693.041 984.042 692.959 C 984.154 701.477 984.092 709.995 983.856 718.51 C 983.991 731.856 985.316 797.359 982.634 806.058 z"></path>
<path transform="translate(0,0)" fill="rgb(49,27,19)" d="M 982.634 806.058 C 979.65 791.001 982.313 735.456 983.856 718.51 C 983.991 731.856 985.316 797.359 982.634 806.058 z"></path>
<path transform="translate(0,0)" fill="rgb(69,46,28)" d="M 672.112 1067.2 C 707.933 1065.28 751.684 1067.57 788.542 1066.88 C 832.846 1067.02 877.211 1066.56 921.509 1066.99 C 932.627 1067.42 941.557 1068.1 946.137 1079.81 C 953.016 1097.4 948.645 1113.15 930.881 1120.68 C 915.104 1121.8 896.558 1121.35 880.578 1121.35 L 805.446 1121.41 C 784.747 1121.42 682.032 1123.72 668.572 1119.38 C 662.949 1117.56 658.532 1112.56 656.301 1107.23 C 652.995 1099.33 652.816 1088.19 656.398 1080.35 C 659.65 1073.25 665.057 1069.89 672.112 1067.2 z"></path>
<path transform="translate(0,0)" fill="rgb(69,46,28)" d="M 674.46 1216.28 C 681.001 1215.98 687.428 1215.98 693.977 1215.99 C 754.849 1216.07 815.752 1215.74 876.618 1216.12 C 880.375 1216.14 890.814 1217.52 893.545 1219.15 C 905.75 1226.42 906.799 1250.32 900.193 1261.56 C 896.451 1267.91 891.632 1270.23 884.961 1272.03 C 816.827 1274.28 746.805 1271.3 678.566 1272.17 C 652.087 1272.51 648.25 1246.29 657.79 1226.93 C 660.931 1220.55 668.124 1217.93 674.46 1216.28 z"></path>
<path transform="translate(0,0)" fill="rgb(69,46,28)" d="M 676.455 1365.35 C 686.976 1364.89 698.426 1365.2 709.001 1365.25 C 755.681 1365.37 800.617 1364.89 847.482 1365.56 C 874.753 1365.95 878.535 1391.68 868.133 1412.73 C 865.462 1418.14 857.738 1419.93 852.176 1420.91 L 740.859 1420.98 C 719.409 1421.02 697.929 1421.35 676.477 1420.64 C 662.561 1420.19 655.207 1414.33 653.247 1400.05 C 650.713 1381.59 657.061 1368.27 676.455 1365.35 z"></path>
<path transform="translate(0,0)" fill="rgb(251,179,58)" d="M 1096.31 1100.29 C 1126.08 1099.23 1159.97 1100.06 1190.17 1100.06 L 1363.87 1100.04 L 1503.93 1099.99 C 1529.07 1099.98 1554.52 1099.73 1579.65 1100.32 C 1585.84 1100.54 1591.69 1101.91 1597.37 1104.37 C 1620.87 1114.52 1630.31 1133.9 1630.63 1158.43 C 1630.94 1180.99 1630.91 1203.41 1630.92 1225.92 L 1630.95 1349.97 L 1630.95 1453.1 C 1630.94 1501.85 1640.27 1554.33 1583.44 1573.54 C 1565.08 1577.84 1528.54 1575.73 1508.21 1575.67 L 1384.59 1575.65 L 1198.84 1575.73 C 1174.15 1575.73 1126.79 1577.15 1104.3 1575.09 C 1093.65 1574.22 1083.41 1570.55 1074.64 1564.44 C 1043.06 1542.86 1049.02 1501.58 1049 1468.12 L 1048.97 1362.23 L 1048.99 1223.89 C 1048.99 1200.14 1048.52 1176.38 1049.67 1152.66 C 1051.03 1124.57 1068.32 1104.63 1096.31 1100.29 z"></path>
<path transform="translate(0,0)" fill="rgb(69,46,28)" d="M 1366.35 1180.09 C 1376.3 1177.14 1523.98 1177.56 1540.32 1179.2 C 1558.38 1183.01 1565.23 1205.31 1559.13 1220.16 C 1550.47 1241.23 1534.29 1263.67 1522.12 1283.46 C 1497.52 1323.79 1472.7 1363.99 1447.65 1404.04 C 1444.71 1408.73 1428.44 1433.23 1427.75 1436.49 C 1429.56 1436.87 1429.86 1437 1431.7 1437.07 C 1459.97 1436.48 1508.54 1435.44 1536.43 1436.98 C 1569.46 1437.01 1573.03 1482.41 1552.25 1493.63 C 1542.58 1499.72 1516.32 1497.83 1504.31 1497.83 L 1445.19 1497.89 L 1395.48 1497.9 C 1380.98 1497.89 1363.35 1500.41 1352.01 1490.67 C 1342.11 1482.92 1341.65 1462.15 1346.39 1451.13 C 1352.34 1437.32 1361.54 1425.08 1369.56 1412.36 C 1375.53 1402.88 1381.63 1393.34 1387.64 1383.82 L 1479.43 1238.27 C 1456.74 1237.94 1377.97 1241.48 1361.91 1236.05 C 1356.85 1234.33 1353.52 1230.22 1351.39 1225.45 C 1347.73 1217.25 1347.65 1202.61 1351.13 1194.14 C 1353.9 1187.39 1359.67 1182.59 1366.35 1180.09 z"></path>
<path transform="translate(0,0)" fill="rgb(49,27,19)" d="M 1366.35 1180.09 C 1376.3 1177.14 1523.98 1177.56 1540.32 1179.2 C 1537.54 1181.14 1535.55 1181.64 1532.07 1181.67 C 1478.07 1182.23 1423.82 1182.47 1369.85 1181.11 C 1369.25 1181.1 1367.04 1180.32 1366.35 1180.09 z"></path>
<path transform="translate(0,0)" fill="rgb(21,12,6)" d="M 1352.01 1490.67 C 1372.62 1497.56 1412.78 1495.05 1435.9 1495 L 1523.74 1494.85 C 1529.43 1494.83 1548.55 1493.14 1552.25 1493.63 C 1542.58 1499.72 1516.32 1497.83 1504.31 1497.83 L 1445.19 1497.89 L 1395.48 1497.9 C 1380.98 1497.89 1363.35 1500.41 1352.01 1490.67 z"></path>
<path transform="translate(0,0)" fill="rgb(49,27,19)" d="M 1431.7 1437.07 C 1459.97 1436.48 1508.54 1435.44 1536.43 1436.98 C 1535.7 1437.62 1534.07 1439.24 1532.97 1439.28 C 1501.06 1440.33 1468.37 1440.23 1436.43 1439.32 C 1434.39 1439.26 1433.05 1438.18 1431.7 1437.07 z"></path>
<path transform="translate(0,0)" fill="rgb(69,46,28)" d="M 1142.18 1180.17 C 1149.89 1178.15 1273.61 1177.89 1280.12 1179.99 C 1285.96 1181.22 1290.21 1183.8 1293.52 1188.86 C 1299.41 1197.83 1299.69 1209.72 1297.44 1219.98 C 1295.89 1227.07 1292.24 1232.53 1286.03 1236.37 C 1274.89 1243.26 1205.72 1239.83 1188.01 1240.14 C 1188.02 1252.67 1188.55 1270.02 1187.82 1282.17 L 1187.83 1283.83 C 1188.03 1291.51 1188.08 1299.19 1187.97 1306.87 C 1207.37 1306.77 1250.49 1304.4 1267.31 1307.98 C 1272.19 1309.02 1276.53 1310.67 1280.04 1314.32 C 1286.06 1320.59 1287.91 1329.94 1287.49 1338.36 C 1287.07 1346.71 1284.52 1355.86 1277.81 1361.38 C 1264.01 1372.72 1194.75 1362.06 1188.78 1367.18 C 1188.15 1367.72 1187.59 1371.22 1187.41 1372.18 C 1188.74 1384.68 1188.07 1407.31 1187.85 1420.48 L 1187.96 1437.4 L 1251.69 1437.06 C 1265.14 1437.04 1276.7 1436.55 1290.02 1438.39 C 1315.21 1441.87 1315.96 1487.98 1295.84 1495.44 C 1286.65 1499.85 1147.98 1499.58 1137.34 1494.45 C 1120.81 1486.46 1125.4 1449.19 1125.45 1432.45 L 1125.61 1362.39 L 1125.54 1260.77 C 1125.53 1241 1125.31 1221.22 1125.98 1201.47 C 1126.32 1191.41 1131.8 1182.22 1142.18 1180.17 z"></path>
<path transform="translate(0,0)" fill="rgb(21,12,6)" d="M 1137.34 1494.45 C 1137.77 1494.25 1295.92 1495.49 1295.84 1495.44 C 1286.65 1499.85 1147.98 1499.58 1137.34 1494.45 z"></path>
<path transform="translate(0,0)" fill="rgb(49,27,19)" d="M 1142.18 1180.17 C 1149.89 1178.15 1273.61 1177.89 1280.12 1179.99 C 1274.95 1182.97 1152.4 1182.64 1142.18 1180.17 z"></path>
<path transform="translate(0,0)" fill="rgb(21,12,6)" d="M 1187.85 1420.48 C 1187.11 1426.05 1187.69 1430.76 1186.01 1436.25 C 1184.71 1425.48 1184.21 1381.69 1187.41 1372.18 C 1188.74 1384.68 1188.07 1407.31 1187.85 1420.48 z"></path>
<path transform="translate(0,0)" fill="rgb(21,12,6)" d="M 1187.83 1283.83 C 1187.14 1290.66 1187.65 1296.81 1186.65 1304.09 L 1185.83 1304.38 C 1184.43 1295.86 1184.95 1267.68 1186.16 1259.24 C 1187.54 1265.05 1187.58 1275.81 1187.82 1282.17 L 1187.83 1283.83 z"></path>
<path transform="translate(0,0)" fill="rgb(21,12,6)" d="M 1106.01 1097.52 C 1132.27 1095.73 1173.63 1097.03 1200.73 1097.07 L 1370.58 1096.98 L 1471.01 1096.95 C 1482.89 1096.93 1513.3 1096.13 1523.51 1097.68 L 1524.3 1099.02 L 1242.45 1099.12 L 1153.74 1099.08 C 1140.91 1099.07 1117.72 1099.76 1105.92 1098.46 L 1106.01 1097.52 z"></path>
<path transform="translate(0,0)" fill="rgb(21,12,6)" d="M 992.161 1234.84 L 992.245 1233.82 C 993.007 1223.65 991.505 1180.4 994.1 1174.63 C 995.846 1187.12 995.152 1214.18 995.118 1227.76 L 995.014 1320.83 L 994.994 1404.83 C 994.987 1415.29 995.503 1441.91 993.748 1450.51 C 991.532 1425.76 994.548 1393.66 992.158 1371.53 C 991.434 1357.64 992.042 1337.98 992.039 1323.73 L 992.161 1234.84 z"></path>
</svg>