<!-- Generated by SVGMaker - https://svgmaker.io --><!-- Prompt: let's make this  guy more artsy --><!-- Quality: medium --><!-- Type: edit --><!-- Created: 2025-10-04T03:20:16.812Z --><svg version="1.1" xmlns="http://www.w3.org/2000/svg" style="display: block;" viewBox="0 0 2048 2048" width="1024" height="1024" preserveAspectRatio="none">
<path transform="translate(0,0)" fill="rgb(255,254,246)" d="M 0 0 L 2048 0 L 2048 2048 L 0 2048 L 0 0 z"></path>
<path transform="translate(0,0)" fill="rgb(0,64,90)" d="M 667.761 230.067 C 669.769 176.998 707.047 129.965 754.413 108.564 C 832.101 73.4611 924.25 105.591 985.84 158.061 C 990.942 162.408 996.564 170.298 1002.18 174.573 C 1026.71 186.545 1059.68 199.748 1087.11 199.718 C 1122.77 199.679 1142.28 199.529 1168.31 226.601 C 1179.42 238.154 1183.5 244.755 1190.17 259.848 C 1188.38 246.406 1186.32 231.004 1180.7 218.677 C 1170.73 197.123 1150.78 174.032 1125.64 171.914 C 1110.26 170.618 1096.1 172.993 1081.56 166.732 C 1088.78 123.741 1140.01 113.441 1175.91 123.045 C 1241.63 140.627 1290.51 207.991 1272.79 276.639 C 1274.83 275.863 1276.9 275.16 1279 274.531 C 1348.21 253.517 1418.61 305.404 1438.81 371.274 C 1552.29 435.491 1656.92 549.061 1718.86 663.14 C 1747.49 716.277 1770.01 772.485 1786 830.69 C 1842.04 1036.85 1813.4 1256.85 1706.45 1441.79 C 1700.84 1451.69 1685.28 1478.63 1678.34 1487.21 C 1655.89 1519.94 1636.09 1548.33 1609.99 1578.59 C 1495.02 1712.86 1338.84 1805.29 1165.81 1841.46 C 1162.4 1863.6 1159.24 1885.77 1156.31 1907.98 C 1154.59 1920.28 1153.18 1933.02 1149.94 1945.03 C 1147.68 1953.42 1138.95 1953.96 1131.75 1954.6 C 1105.73 1957.32 1069.61 1949.32 1046.37 1937.22 C 1033.26 1930.96 1013.9 1915.09 998.916 1915.99 C 957.098 1918.52 916.9 1949.84 873.425 1947.08 C 868.917 1947.16 864.293 1947.43 859.935 1946.07 C 854.784 1944.47 850.759 1941.78 848.321 1936.85 C 840.824 1921.71 865.631 1861.59 871.749 1843.92 C 856.609 1840.72 841.584 1837 826.703 1832.76 C 798.344 1824.43 774.553 1817.68 746.495 1807.16 C 635.254 1765.39 534.315 1700.14 450.541 1615.87 C 450.109 1615.48 449.677 1615.09 449.245 1614.69 C 308.847 1472.11 218.724 1274.94 211.33 1076.44 C 202.966 851.863 278.28 655.526 429.059 493.694 C 422.072 485.195 414.441 476.489 408.224 467.526 C 366.192 406.937 391.491 305.115 467.321 285.726 C 480.22 282.428 489.55 281.892 502.739 281.019 C 485.867 245.394 476.848 213.426 498.683 176.321 C 508.527 159.592 518.674 152.932 537.531 148.371 C 515.694 196.222 562.032 241.135 609.175 239.404 C 627.835 238.719 649.345 233.896 667.761 230.067 z"></path>
<path transform="translate(0,0)" fill="rgb(254,118,65)" d="M 1438.81 371.274 C 1552.29 435.491 1656.92 549.061 1718.86 663.14 C 1747.49 716.277 1770.01 772.485 1786 830.69 C 1842.04 1036.85 1813.4 1256.85 1706.45 1441.79 C 1700.84 1451.69 1685.28 1478.63 1678.34 1487.21 C 1643.39 1461.66 1609.32 1437.26 1571.25 1415.78 C 1535.4 1394.88 1495 1379.69 1459.19 1359.27 C 1453.81 1356.2 1429.13 1330.91 1422.29 1324.82 C 1421.65 1320.92 1420.67 1315.48 1419.79 1311.76 C 1414.53 1289.37 1384.03 1257.77 1365.21 1246.89 C 1364.4 1211.41 1344.8 1181.67 1319.5 1157.17 C 1314.6 1152.42 1300.91 1145.76 1296.72 1141.12 C 1288.14 1131.61 1281.88 1122.17 1272.87 1112.4 C 1284.33 1087.08 1292.48 1076.48 1300.54 1048.34 C 1315.68 1054.43 1327.85 1058.29 1343.95 1060.45 C 1323.3 1081.59 1318.2 1109.58 1338.55 1134.18 C 1354.33 1151.24 1381.51 1147.27 1396.22 1131.64 C 1421.91 1104.35 1418.28 1077.44 1392.17 1052.69 L 1390.65 1041.61 C 1396.48 1038.64 1401.12 1034.97 1406.49 1031.21 C 1493.22 970.404 1542.3 836.339 1463.73 749.616 C 1457.74 742.996 1448.4 737.087 1441.39 730.729 C 1449.24 690.393 1451.98 650.88 1440.97 610.851 C 1468.76 591.019 1485.16 565.457 1489.86 530.54 C 1491.38 519.21 1484.94 508.707 1477.52 500.627 C 1473.72 504.795 1471.11 509.246 1466.32 512.618 C 1443.86 528.453 1431.34 506.879 1420.24 490.803 C 1449.95 458.452 1447.87 411.267 1438.81 371.274 z"></path>
<path transform="translate(0,0)" fill="rgb(254,118,65)" d="M 429.059 493.694 C 447.684 514.182 473.425 536.62 502.274 539.465 L 504.17 539.662 C 504.55 539.694 504.93 539.727 505.31 539.76 C 494.194 549.424 484.472 557.347 483.464 573.367 C 482.45 589.463 490.781 603.214 501.383 614.495 C 517.131 631.252 530.683 638.812 551.81 646.391 C 550.761 657.939 557.451 693.269 560.43 705.559 C 537.496 709.663 514.508 713.457 491.471 716.942 C 480.534 718.694 462.26 721.117 452.165 724.222 C 451.754 741.122 451.678 761.342 452.264 778.38 C 457.763 779.642 463.246 780.968 468.713 782.36 C 474.57 794.557 476.31 805.586 477.7 818.994 C 482.989 869.994 491.1 928.421 537.115 959.561 C 549.232 967.761 564.088 973.592 577.503 979.461 C 579.873 995.026 580.804 1012.18 583.628 1027.01 C 589.336 1056.99 597.774 1089.09 607.244 1118.04 C 603.044 1114.34 594.008 1105.85 589.58 1103.61 C 587.539 1105.19 587.372 1106.47 586.979 1109.07 C 582.77 1136.94 606.401 1149.42 625.815 1161.89 C 649.955 1214.08 678.664 1271.26 714.622 1316.77 C 721.816 1325.88 737.664 1339.07 746.735 1346.5 C 737.327 1370.71 729.687 1392.04 721.274 1416.59 C 705.276 1427.19 685.849 1436.22 668.474 1446.95 C 628.992 1471.71 590.275 1497.67 552.377 1524.8 C 530.092 1475.77 474.326 1367.29 437.936 1328.72 C 447.312 1275.03 428.617 1213.2 384.325 1179.42 C 357.488 1158.96 328.794 1141.41 303.053 1119.46 C 297.322 1114.57 275.651 1093.1 269.432 1092.39 C 263.745 1101.25 277.351 1142.66 281.195 1154.48 C 293.313 1191.74 288.152 1227.26 290.883 1264.45 C 293.78 1303.91 345.584 1344.48 378.391 1358.94 C 392.413 1412.4 418.514 1467.82 444.179 1516.44 C 455.385 1537.67 468.045 1562.68 482.781 1581.61 C 468.921 1593.68 462.107 1601.9 450.541 1615.87 C 450.109 1615.48 449.677 1615.09 449.245 1614.69 C 308.847 1472.11 218.724 1274.94 211.33 1076.44 C 202.966 851.863 278.28 655.526 429.059 493.694 z"></path>
<path transform="translate(0,0)" fill="rgb(254,118,65)" d="M 1030.4 1871.92 C 1039.35 1857.25 1046.93 1824.93 1053.84 1806.92 C 1079.54 1740.04 1105.91 1668.42 1158.98 1617.89 C 1169.34 1608.25 1213.27 1582.21 1226.51 1574.46 C 1177.16 1677.11 1134.71 1775.23 1126.65 1890.66 C 1125.82 1902.64 1119.09 1948.91 1131.75 1954.6 C 1105.73 1957.32 1069.61 1949.32 1046.37 1937.22 C 1033.26 1930.96 1013.9 1915.09 998.916 1915.99 C 957.098 1918.52 916.9 1949.84 873.425 1947.08 C 864.09 1929.92 884.185 1889.97 891.102 1871.3 C 915.928 1804.31 943.037 1738.6 985.491 1680.64 C 1015.7 1678.77 1054.19 1671 1081.28 1657.62 C 1062.7 1699.24 1008.5 1820.49 1023.93 1861.41 C 1025.4 1865.33 1027.93 1868.6 1030.4 1871.92 z"></path>
<path transform="translate(0,0)" fill="rgb(254,118,65)" d="M 830.05 1659.45 C 844.773 1667.62 859.782 1675.12 876.209 1679.23 C 883.409 1681.03 912.344 1683.21 915.572 1686.92 C 918.341 1690.1 922.268 1690.95 926.341 1691.07 C 930.948 1691.2 935.768 1690.69 940.27 1689.77 C 927.883 1708.71 924.174 1719.52 914.351 1738.95 C 896.713 1773.85 884.029 1806.77 871.749 1843.92 C 856.609 1840.72 841.584 1837 826.703 1832.76 C 828.58 1825.04 829.718 1811.77 830.626 1803.59 C 833.724 1776.01 834.514 1748.21 832.988 1720.5 C 831.948 1698.93 829.649 1681.4 830.05 1659.45 z"></path>
<path transform="translate(0,0)" fill="rgb(254,204,143)" d="M 1388.71 764.436 C 1460.02 762.092 1461.89 818.684 1459.72 875.094 C 1458.04 918.942 1414.89 979.659 1381.95 1007.97 C 1372.22 992.334 1351.67 982.269 1346.23 1006.15 C 1347.42 1010.9 1350.59 1014.53 1353.5 1018.6 C 1353.42 1021.98 1353.92 1020.44 1351.7 1023.26 C 1342.46 1026.85 1323.51 1019.52 1315.44 1014.64 C 1306.72 1009.36 1289.99 977.227 1282 975.591 C 1277.37 982.891 1267.34 1026.15 1263.91 1038.06 C 1257.24 1065.85 1242.93 1087.44 1229.32 1111.96 C 1188.07 1186.3 1120.54 1242.44 1047.25 1283.6 C 974.321 1324.56 886.065 1346.21 803.831 1323.29 C 745.728 1307.1 717.977 1268.15 689.681 1218.16 C 679.395 1200.28 669.393 1182.23 659.678 1164.04 L 660.926 1164.11 C 716.556 1167.22 757.183 1140.37 796.737 1105.07 C 803.001 1111.75 811.737 1121.04 819.669 1125.73 C 860.525 1149.84 916.755 1160.39 963.031 1163.91 C 994.639 1163.57 1028.75 1153.38 1043.13 1122.26 C 1046.15 1115.71 1048.95 1106.13 1047.73 1098.83 L 1046.54 1098.32 C 1030.55 1105.54 1032.43 1114.76 1010.58 1114.17 C 975.159 1113.22 958.257 1084.61 931.144 1066.86 C 909.972 1052.99 891.356 1043.55 866.4 1039.2 C 854.74 1004.19 813.81 1028.35 788.147 1033.25 C 779.366 1034.98 770.338 1035.02 761.541 1033.38 C 745.538 1030.41 734.875 1024.55 725.581 1011.16 C 733.495 970.22 755.549 931.126 766.664 890.944 C 773.427 866.493 777.588 842.469 780.081 817.267 C 780.621 811.805 781.229 802.15 786.998 799.769 C 804.43 792.575 828.145 795.797 845.936 800.795 C 848.694 839.041 849.212 856.295 862.063 892.984 C 878.298 939.334 901.922 972.241 952.759 983.836 C 994.692 993.4 1052.6 994.286 1090.78 971.679 C 1137.16 944.223 1154.09 889.225 1159.96 838.817 C 1161.89 823.374 1164.07 804.672 1167.68 789.791 C 1171.54 785.873 1173.41 784.901 1178.04 782.099 C 1195.23 781.851 1218.87 786.118 1235.83 790.57 C 1235 805.998 1234.41 821.437 1234.06 836.883 C 1233.88 849.576 1229.55 913.237 1252.1 909.751 C 1279.9 905.456 1306.75 866.167 1316.91 841.908 C 1334.45 800.001 1332.48 767.854 1388.71 764.436 z"></path>
<path transform="translate(0,0)" fill="rgb(0,64,90)" d="M 1412.26 788.195 C 1442.45 783.854 1440.12 810.351 1443.5 831.44 C 1444.02 834.665 1443.67 838.04 1441.54 840.562 C 1438.57 838.676 1435.53 836.892 1432.44 835.213 C 1403.66 819.906 1376.52 828.211 1361.93 857.646 C 1371.09 866.49 1379.26 866.61 1387.9 878.329 C 1404.54 900.895 1397.32 937.625 1374.54 953.571 C 1362.77 959.367 1345.03 963.333 1334.04 953.575 C 1330.43 950.37 1322.61 944.906 1322.15 940.011 C 1331.08 935.157 1340.23 940.055 1350.21 928.072 C 1370 904.303 1355.16 883.985 1337.19 866.828 C 1357.63 820.233 1356.28 801.21 1412.26 788.195 z"></path>
<path transform="translate(0,0)" fill="rgb(0,64,90)" d="M 746.963 1156.29 C 751.036 1156.04 761.37 1155.26 765.033 1155.76 C 777.683 1156.86 792.525 1167.79 805.208 1167.87 C 840.398 1168.1 851.186 1160.46 886.506 1172.87 C 881.565 1180.21 876.725 1185.94 869.486 1191.07 C 867.828 1191.79 866.154 1192.47 864.466 1193.12 C 795.952 1219.17 704.291 1166.5 746.963 1156.29 z"></path>
<path transform="translate(0,0)" fill="rgb(254,204,143)" d="M 589.73 572.439 C 606.138 591.991 636.527 608.607 662.199 610.551 C 794.232 620.604 818.552 441.359 936.08 418.033 C 949.018 415.465 967.132 413.931 980.252 415.508 C 1063.2 425.479 1137.69 442.484 1179.18 522.709 C 1171.44 597.19 1170.06 638.467 1219.69 699.483 C 1225.03 706.179 1230.8 712.521 1236.97 718.469 L 1236.71 729.494 C 1188.17 725.842 1148.94 712.131 1101.22 706.561 C 1042.61 699.721 912.648 694.861 861.545 728.092 C 857.929 730.926 849.373 741.224 845.095 742.014 C 825.716 745.591 804.388 744.851 784.645 746.55 C 774.514 747.423 759.052 729.423 755.72 721.369 L 758.987 721.551 C 759.375 709.677 743.85 688.777 735.935 680.534 C 721.642 665.649 701.029 657.51 682.067 650.589 C 647.05 637.808 609.288 628.631 581.153 661.2 L 579.681 660.629 C 580.338 632.634 582.775 599.633 589.73 572.439 z"></path>
<path transform="translate(0,0)" fill="rgb(0,64,90)" d="M 1011.73 600.382 C 1037.02 597.132 1076.04 603.247 1097.4 617.946 C 1109.86 626.524 1144.46 646.807 1131.05 665.408 C 1117.86 683.697 1097.12 668.336 1081.03 664.636 C 1053.36 658.271 1021.57 658.184 993.589 662.742 C 965.769 667.887 942.144 674.565 915.46 683.398 C 905.285 686.767 881.25 690.216 879.922 674.599 C 878.303 655.553 896.899 643.948 911.078 635.052 C 941.09 615.37 976.378 604.865 1011.73 600.382 z"></path>
<path transform="translate(0,0)" fill="rgb(254,118,65)" d="M 1283.54 1171.52 C 1292.66 1178.1 1302.38 1186.29 1309.19 1195.38 C 1343.81 1241.65 1330.07 1320.67 1302.03 1367.04 C 1289.53 1387.29 1274.32 1405.6 1259.03 1423.76 C 1255.07 1428.47 1242.33 1439.83 1241.74 1444.48 L 1243.97 1445.65 C 1260.84 1445.66 1281.41 1431.84 1293.6 1420.47 C 1330.53 1386.02 1346.84 1329.03 1350.31 1281.93 C 1359.96 1294.36 1367.4 1308.35 1372.3 1323.3 C 1396.36 1396.5 1345.58 1465.8 1288.92 1506.91 C 1273.98 1517.75 1257.32 1524.71 1240.76 1532.53 C 1222.6 1541.14 1204.5 1549.88 1186.48 1558.77 C 1158.84 1572.92 1131.37 1587.39 1104.06 1602.15 C 1064.89 1623.23 1046.84 1634.6 1003.37 1648.61 C 1010.56 1642.15 1019.72 1636.1 1027.12 1629.39 C 1068.84 1591.61 1106.83 1560.67 1144.09 1517.99 C 1100.33 1516.85 1026.56 1583.95 992.037 1611.72 C 965.734 1633.6 937.342 1651.74 902.139 1649.6 C 813.737 1644.22 765.015 1586.32 767.33 1502.44 C 783.474 1526.41 816.724 1554.26 843.967 1564.06 C 876.313 1575.7 902.52 1575.21 933.437 1561.22 C 869.811 1552.74 820.655 1537.02 784.902 1478.17 C 757.923 1433.76 765.036 1406.92 777.824 1358.83 C 797.338 1368.57 809.808 1371.14 830.674 1373.88 C 841.69 1407.5 851.106 1425.26 878.473 1448.12 C 996.561 1546.59 1148.95 1399.2 1224.61 1313.08 C 1249.95 1284.24 1256.65 1270.28 1268.34 1233.4 C 1275.59 1210.51 1280.44 1195.93 1283.54 1171.52 z"></path>
<path transform="translate(0,0)" fill="rgb(254,204,143)" d="M 998.891 745.5 C 1025.43 744.019 1092.19 743.056 1113.29 758.968 C 1137.9 782.502 1120.76 852.11 1113.67 878.247 C 1096.52 941.477 1073.75 954.435 1011.78 956.074 C 923.413 956.816 900.727 920.755 886.338 837.267 C 883.43 820.393 880.883 774.894 893.781 763.482 C 914.366 745.268 972.949 746.271 998.891 745.5 z"></path>
<path transform="translate(0,0)" fill="rgb(0,64,90)" d="M 935.458 776.282 C 951.366 775.178 965.253 777.467 980.423 777.645 C 1014.38 778.044 1046.15 777.369 1079.54 785.341 C 1083.2 786.217 1091.81 787.268 1094.29 789.346 L 1094.44 792.686 C 1087.95 799.824 1093.42 797.562 1091.83 803.594 C 1079.15 804.533 1087.52 818.544 1061.08 819.519 L 1059.1 819.581 C 1059.81 833.873 1060.21 839.979 1053.98 853.063 C 1018.25 895.589 958.953 872.189 974.949 809.419 C 968.198 811.247 956.06 814.759 949.268 813.8 C 947.196 811.787 947.693 813.026 947.426 810.158 C 953.766 799.234 943.096 802.288 939.415 795.583 L 942.029 792.431 C 939.387 787.428 934.381 787.172 933.246 783.243 C 936.051 782.788 936.758 782.651 939.443 781.759 C 939.888 778.744 936.585 781.86 933.864 778.042 L 935.458 776.282 z"></path>
<path transform="translate(0,0)" fill="rgb(254,204,143)" d="M 590.995 742.932 C 623.888 741.34 700.162 741.543 728.552 762.837 C 735.708 768.204 738.122 779.487 739.576 788.163 C 727.322 784.572 716.288 784.587 703.797 782.971 C 683.081 780.29 662.415 775.888 641.463 779.525 C 631.884 781.188 617.286 782.455 611.886 791.578 L 615.125 794.94 C 613.917 796.716 613.75 796.867 612.191 798.359 C 613.994 799.112 615.806 799.841 617.628 800.546 C 616.44 801.524 615.386 802.48 614.34 803.615 C 616.952 804.627 619.572 805.619 622.198 806.593 C 620.24 809.117 620.963 808.243 617.909 809.921 L 617.7 811.231 L 620.556 812.679 C 618.166 817.371 615.15 817.775 614.691 821.951 C 620.054 829.5 639.72 818.534 645.872 814.676 C 644.601 827.434 644.461 847.641 653.038 857.795 C 665.264 872.27 693.685 874.011 707.693 861.071 C 720.195 849.523 717.775 832.206 713.958 817.472 C 718.756 816.889 724.459 816.039 729.206 815.721 C 729.075 811.943 728.431 806.051 729.789 802.803 C 731.724 802.25 733.578 801.64 735.422 800.834 L 735.571 799.72 C 735.982 796.785 735.911 795.421 737.601 792.984 L 739.453 792.301 C 742.297 811.125 733.103 871.579 726.896 890.424 C 724.065 899.173 719.848 907.411 714.406 914.823 C 688.609 949.248 634.185 952.748 595.153 947.319 C 584.147 944.961 562.774 940.883 554.076 933.937 C 533.009 917.115 520.841 866.973 517.2 841.701 C 514.234 821.116 508.849 778.763 521.985 761.989 C 533.147 747.737 573.12 745.01 590.995 742.932 z"></path>
<path transform="translate(0,0)" fill="rgb(254,118,65)" d="M 595.153 947.319 C 584.147 944.961 562.774 940.883 554.076 933.937 C 533.009 917.115 520.841 866.973 517.2 841.701 C 514.234 821.116 508.849 778.763 521.985 761.989 C 533.147 747.737 573.12 745.01 590.995 742.932 C 590.651 755.205 591.471 754.202 586.46 764.801 C 592.423 812.502 595.749 858.557 596.324 906.694 C 596.391 912.292 598.151 929.89 597.081 933.524 C 595.535 937.799 595.069 942.794 595.153 947.319 z"></path>
<path transform="translate(0,0)" fill="rgb(0,64,90)" d="M 585.759 754.94 C 585.962 758.229 586.195 761.517 586.46 764.801 C 592.423 812.502 595.749 858.557 596.324 906.694 C 596.391 912.292 598.151 929.89 597.081 933.524 C 591.718 932.415 578.194 928.028 572.947 926.276 C 571.663 915.75 572.798 903.835 571.404 893.443 C 565.408 848.745 569.185 802.867 566.583 758.285 C 572.343 757.831 579.932 756.1 585.759 754.94 z"></path>
<path transform="translate(0,0)" fill="rgb(254,204,143)" d="M 1248.47 1141.64 C 1248.81 1142.5 1248.89 1142.58 1249.04 1143.65 C 1250.1 1151.66 1246.57 1164.54 1245.4 1172.73 C 1239.88 1211.43 1236.87 1250.6 1213.32 1283.26 C 1196.91 1306.01 1178.09 1325.44 1157.58 1344.48 C 1110.99 1387.71 1054.97 1428.57 990.615 1438.75 C 959.607 1443.66 931.689 1442.45 905.71 1423.74 C 898.753 1418.19 893.828 1413.95 887.376 1407.82 C 913.866 1408.41 931.323 1407.58 957.257 1398.91 C 982.852 1390.13 1007.27 1378.24 1029.97 1363.51 C 1040.17 1356.79 1050.36 1347.35 1060.13 1339.76 C 1087.07 1318.84 1112.91 1296.13 1138.17 1273.19 C 1160.32 1253.09 1186.5 1228.75 1205.84 1206.14 C 1218.88 1190.88 1239.48 1159.66 1248.47 1141.64 z"></path>
<path transform="translate(0,0)" fill="rgb(254,204,143)" d="M 715.048 957.984 C 715.028 961.032 711.606 966.609 710.319 969.867 C 701.379 992.498 698.194 1014.94 706.949 1037.79 C 711.797 1042.2 719.471 1046.87 725.126 1050.56 C 694.086 1068.99 671.779 1097.35 639.645 1110.56 L 634.74 1099.23 C 615.939 1050.64 612.513 1034.57 601.465 984.088 C 634.967 985.934 688.131 979.494 715.048 957.984 z"></path>
<path transform="translate(0,0)" fill="rgb(255,254,246)" d="M 449.279 1384 C 449.973 1384.17 449.575 1383.99 450.216 1384.93 L 444.753 1393.59 C 448.728 1403.38 455.383 1413.06 460.668 1422.3 L 487.746 1470.75 C 501.779 1495.45 515.127 1519.57 527.613 1545.14 C 549.314 1589.6 571.839 1631.34 585.243 1679.27 L 577.743 1669.29 C 559.299 1648.93 555.375 1637.56 541.189 1614.41 C 516.152 1573.55 494.054 1532.91 472.711 1490.07 C 458.548 1461.64 442.381 1434.09 428.884 1405.21 C 440.448 1387.45 430.569 1394.59 449.279 1384 z"></path>
<path transform="translate(0,0)" fill="rgb(255,254,246)" d="M 1449.98 1399.61 C 1470.13 1426.15 1456.17 1565.04 1453.5 1602.56 C 1446.96 1605.26 1439.96 1607.55 1433.18 1609.59 C 1403.9 1618.42 1374.87 1629.16 1345.66 1638.03 C 1355.97 1651.27 1383.34 1686.83 1389.7 1701.64 C 1387.63 1702.42 1386.51 1701.28 1383.73 1700.15 C 1368.74 1687.09 1338.97 1647.47 1325.56 1630.84 C 1359.64 1617.63 1404.64 1603.94 1439.82 1593.09 C 1445.78 1528.58 1444.99 1463.98 1449.98 1399.61 z"></path>
<path transform="translate(0,0)" fill="rgb(255,254,246)" d="M 776.502 232.363 C 784.057 231.61 789.134 232.719 796.5 234.035 C 781.876 241.271 765.765 246.207 751.601 254.555 C 718.349 274.014 711.438 311.591 685.286 338.21 C 662.364 361.542 638.388 370.599 606.295 359.073 C 588.623 352.726 576.706 340.672 563.38 328.02 C 558.841 322.495 551.289 307.132 557.021 300.871 C 561.197 304.521 566.928 323.451 580.728 333.063 C 592.415 342.142 615.966 349.044 630.906 346.317 C 669.345 339.3 690.13 300.644 709.949 271.79 C 722.964 252.841 753.674 235.18 776.502 232.363 z"></path>
<path transform="translate(0,0)" fill="rgb(255,254,246)" d="M 843.435 301.422 C 846.176 301.402 848.916 301.46 851.654 301.597 C 864.885 302.226 869.981 307.903 878.244 316.996 C 851.333 304.764 829.966 315.855 808.283 332.309 C 779.25 354.34 758.743 384.954 746.567 419.055 C 739.397 439.135 733.827 454.834 719.8 471.314 C 716.096 475.313 702.361 490.557 697.214 486.071 C 698.913 479.399 713.042 457.797 716.412 449.673 C 729.361 418.459 735.949 383.072 759.511 357.566 C 780.959 334.349 810.231 303.982 843.435 301.422 z"></path>
<path transform="translate(0,0)" fill="rgb(255,254,246)" d="M 882.358 372.287 C 896.39 370.614 910.613 372.731 923.55 378.419 C 938.953 385.146 951.895 393.966 958.163 410.049 C 952.648 407.147 947.364 403.77 941.708 401.06 C 906.996 384.427 880.73 390.473 852.4 414.793 C 834.933 428.742 822.429 447.808 802.959 462.739 C 817.131 420.783 833.468 380.072 882.358 372.287 z"></path>
<path transform="translate(0,0)" fill="rgb(255,254,246)" d="M 801.48 154.24 C 834.168 151.916 869.056 163.303 894.094 184.197 C 912.941 199.924 917.507 239.331 918.477 262.411 C 910.861 251.606 909.481 246.279 905.026 233.649 C 890.645 195.782 856.852 172.68 817.353 167.27 C 796.677 164.438 785.11 168.023 766.019 174.782 C 774.865 161.254 786.24 156.965 801.48 154.24 z"></path>
<path transform="translate(0,0)" fill="rgb(255,254,246)" d="M 706.077 1487.54 C 707.416 1488.11 707.349 1488.35 708.475 1489.49 C 708.494 1493.67 665.917 1589.47 661.863 1596.66 C 674.829 1602.93 706.626 1623.46 715.9 1634.79 C 711.244 1632.85 706.135 1630.95 701.408 1629.11 C 685.055 1622.18 656.974 1606.5 641.08 1597.73 C 651.216 1579.44 661.565 1558.09 670.591 1539.12 C 682.469 1514.14 686.848 1506.63 706.077 1487.54 z"></path>
<path transform="translate(0,0)" fill="rgb(255,254,246)" d="M 475.213 348.252 L 478.445 349.325 C 479.76 353.831 472.284 368.351 471.947 374.278 C 469.922 409.866 497.202 454.269 535.331 456.675 C 543.654 457.2 549.054 456.617 557.365 455.556 C 552.728 459.229 549.142 461.453 544.148 464.596 C 481.972 486.393 434.955 390.464 475.213 348.252 z"></path>
<path transform="translate(0,0)" fill="rgb(255,254,246)" d="M 996.838 268.176 C 1033.56 264.998 1057.49 293.298 1066.78 325.828 C 1074.23 351.893 1071.35 374.672 1064.83 400.265 L 1062.2 409.539 C 1056.41 388.104 1058.82 358.655 1052.91 337.705 C 1042.05 299.26 1028.03 287.117 996.838 268.176 z"></path>
<path transform="translate(0,0)" fill="rgb(255,254,246)" d="M 644.106 441.015 L 645.569 442.346 C 645.162 445.334 632.021 460.106 629.299 465.045 C 607.797 504.061 653.448 533.956 683.028 549.438 C 677.085 549.241 672.462 548.786 666.576 548.147 C 659.273 546.557 650.392 544.846 644.018 541.472 C 618.525 527.981 597.091 495.895 613.2 467.413 C 621.062 453.514 629.55 446.012 644.106 441.015 z"></path>
<path transform="translate(0,0)" fill="rgb(255,254,246)" d="M 1285.63 338.124 C 1291.38 337.888 1296.77 337.66 1302.52 338.318 C 1318.84 340.325 1333.67 348.764 1343.74 361.758 C 1356.77 378.624 1364.13 407.045 1360.18 427.804 C 1359.18 433.1 1357.62 444.852 1353.4 448.008 C 1351.69 445.914 1352.36 444.05 1352.3 440.569 C 1350.93 427.85 1349.51 415.956 1346.86 403.411 C 1339.32 367.715 1305.11 339.166 1267.61 348.693 C 1274.47 342.538 1276.65 340.691 1285.63 338.124 z"></path>
<path transform="translate(0,0)" fill="rgb(255,254,246)" d="M 1205.43 433.382 C 1245.24 429.091 1286.07 462.101 1295.4 500.335 C 1297.25 507.9 1296.77 516.264 1292.38 522.843 L 1289.38 525.552 L 1288.37 524.741 C 1292.19 486.006 1253.46 454.121 1221.63 440.949 C 1216.15 438.683 1210.71 436.083 1205.43 433.382 z"></path>
<path transform="translate(0,0)" fill="rgb(254,204,143)" d="M 607.701 689.136 C 638.319 688.198 698.606 700.08 725.331 714.322 L 712.751 711.73 C 669.199 703.175 637.398 700.825 593.188 701.6 C 598.053 696.613 601.537 691.805 607.701 689.136 z"></path>
<path transform="translate(0,0)" fill="rgb(255,254,246)" d="M 1133.24 409.941 C 1142.9 392.148 1158.69 359.731 1154.12 337.953 C 1153.26 333.827 1148.41 334.045 1146.89 328.367 C 1150.52 329.716 1154.15 331.099 1157.76 332.516 C 1172.96 360.456 1155.74 394.757 1135.38 414.999 L 1133.24 409.941 z"></path>
<path transform="translate(0,0)" fill="rgb(254,118,65)" d="M 1367.2 1082 C 1380.58 1081.71 1380.11 1092.2 1381.13 1102.72 C 1377.17 1108.76 1375.11 1110.11 1369.2 1114.08 C 1352.33 1114.06 1351.18 1088.53 1367.2 1082 z"></path>
<path transform="translate(0,0)" fill="rgb(255,254,246)" d="M 1343.15 551.816 C 1345.46 554.519 1347.06 559.396 1349.01 562.566 C 1362.81 584.934 1368.7 596.7 1396.68 596.187 L 1397.01 597.207 L 1394.09 600.085 C 1364.79 615.986 1336.83 570.898 1343.15 551.816 z"></path>
<path transform="translate(0,0)" fill="rgb(255,254,246)" d="M 420.809 1347.14 C 442.482 1345.62 442.265 1364.09 424.927 1374.25 C 404.249 1374.57 404.807 1354.44 420.809 1347.14 z"></path>
<path transform="translate(0,0)" fill="rgb(255,254,246)" d="M 666.926 1707.89 C 669.356 1708.88 675.469 1711.16 677.42 1712.6 C 694.035 1724.79 696.506 1747.97 699.965 1766.26 C 694.031 1761.46 672.158 1718.03 666.926 1707.89 z"></path>
<path transform="translate(0,0)" fill="rgb(255,254,246)" d="M 1331.4 659.552 C 1345.93 666.151 1354.74 675.598 1375.75 673.664 C 1380.93 673.187 1385.71 671.619 1390.66 671.341 L 1391.06 672.364 L 1388.97 675.575 C 1366.17 687.826 1343.25 683.45 1331.4 659.552 z"></path>
<path transform="translate(0,0)" fill="rgb(51,79,92)" d="M 581.153 661.2 C 580.314 678.964 585.784 685.552 586.51 700.563 L 584.991 700.815 C 582.733 692.907 577.077 667.536 579.681 660.629 L 581.153 661.2 z"></path>
<path transform="translate(0,0)" fill="rgb(254,204,143)" d="M 1133.24 409.941 L 1135.38 414.999 C 1131.43 419.045 1127.45 423.044 1123.41 426.995 C 1126.93 419.955 1128.82 416.387 1133.24 409.941 z"></path>
</svg>