<svg xmlns="http://www.w3.org/2000/svg" width="1024" height="1024" preserveAspectRatio="none" style="display:block" viewBox="0 0 2048 2048"><path fill="#002840" d="M916.107 159.513a869.6 869.6 0 0 1 162.643-5.119c406.98 25.364 741.67 330.122 804.94 732.95 63.27 402.826-161.88 795.516-541.48 944.426-379.606 148.91-811.699 14.04-1039.196-324.37C75.518 1169 113.729 717.958 394.912 422.646a869.556 869.556 0 0 1 521.195-263.133m.001 1263.757c17.345-19.02 50.225-52.28 69.368-68.97-21.964-17-43.689-34.31-65.167-51.92-19.595-16.11-102.548-88.17-118.087-94.04-5.513 67.91 20.079 167.47 37.713 233.39 3.022 11.29 11.18 40.43 15.69 49.68 17.253-21.54 41.479-47.63 60.483-68.14m216.532 296.68 8.59-25.33c12.28-43.08 26.45-85.95 37.83-129.38 1.92-7.31 4.21-15.12 6.6-22.27l-43.05-51.04c-4.25-5.02-20.02-23.64-24.59-27.14-5.32 12.75-19.52 46.47-20.48 58.7-.85 10.92 29.58 180.63 35.1 196.46m-211.593 4.9c2.258-21.56 8.476-47.11 11.966-69.32q7.052-46.125 15.035-92.1c1.996-11.74 3.995-27.49 6.476-38.63-4.807-13.06-16.558-45.31-19.064-58.12-22.137 24.13-44.506 55.06-67.441 78.01 8.313 41.13 27.807 112.89 42.415 152.57 3.501 9.95 6.502 17.84 10.613 27.59m275.163-235.74c5.96-17.12 11.85-42.94 17.69-59.85 10.04-29.05 49.17-206.27 32.84-221.51-52.16 53.49-112.57 100.47-172.08 145.57 21.9 22.99 46.45 46.97 66.71 71.38 15.19 15.73 42.46 47.16 54.84 64.41"/><path fill="#001529" d="M916.107 159.513a869.6 869.6 0 0 1 162.643-5.119l-1.55 1.913c-40.89-1.197-79.742-1.747-120.525 1.804-8.739.761-32.577 4.567-40.271 3.175z"/><path fill="#F16930" d="M988.336 217.562c21.484-1.403 48.384-.85 69.924.141a809.4 809.4 0 0 1 372.96 112.333c178.14 105.555 316.05 278.22 367.63 479.94 55.86 211.334 25.39 436.214-84.71 625.064-5.11-3.74-9.99-7.66-14.92-11.63-35.01-28.18-74.84-45.36-115.36-64.03a8659 8659 0 0 0-133.91-59.71c-10.67-4.66-79.71-32.92-83.43-36.82-21.36-22.46-70.84-78.57-89.32-103.26 25.5-39.41 67.11-111.56 68.87-158.76 4-.78 7.94-1.799 11.81-3.062 71.05-23.411 116.64-187.113 79.84-250.092-10.22-17.504-26.24-27.571-43.71-36.122q.42-1.241.81-2.495c4.37-14.356 7.68-39.069 9.83-54.3 9.19-65.381 13.64-138.943-18.44-199.078-20.49-38.434-56.07-71.601-98.21-84.495-10.47-18.829-19.92-31.803-36.89-45.566-55.48-44.983-123.92-59.392-193.22-67.424-105.006-7.282-224.947 9.919-302.802 86.918-22.571 22.322-23.216 33.545-51.684 52.328-34.708 22.902-61.348 80.648-66.236 121.573-7.203 60.304-3.013 133.189 12.468 192.853a89.3 89.3 0 0 0-18.591 9.74c-15.764 10.997-31.577 33.774-33.849 52.964-8.328 70.37 23.876 212.868 106.533 226.178 1.16 46.47 43.516 122.75 70.235 160.36-6.018 8.54-31.869 37.59-39.29 46.15-8.979 10.36-43.704 53.11-51.681 57.99-14.247 8.73-54.223 25.15-71.837 33.2l-136.12 61.53c-29.579 13.3-61.421 26.59-89.367 42.77-14.755 8.54-31.715 21.91-45.48 32.39-12.198-16.76-24.076-38.29-33.405-56.9-143.185-285.53-96.767-662.277 122.975-896.891 100.021-106.79 202.66-179.234 340.826-224.911a762.2 762.2 0 0 1 217.751-38.876"/><path fill="#F2CA8E" d="M1307.97 782.651c4.38 9.65 10.92 34.803 25.27 33.193 26.26-2.946 8.67-52.372 37.89-52.778 7.76-.107 10.56 1.737 15.99 6.881 22.1 33.346-.91 126.923-24.71 156.957-14.1 17.785-19.1 5.99-30.81-.172-33.41-17.579-34.6 44-38.54 64.306-19.5 100.482-104.91 225.712-211.17 251.282a225.49 225.49 0 0 1-172.765-27.75c-69.543-42.96-123.814-117.05-146.611-195.38-6.696-23.01-9.349-43.623-13.949-66.813-1.914-9.645-6.65-21.663-15.375-26.28-18.669-13.646-26.633 11.065-35.064 11.641-23.99 1.638-42.934-67.99-44.613-83.003-3.139-28.065-10.169-57.794 3.632-82.365 3.686-6.563 11.479-8.276 17.942-9.068 27.764-.787 16.435 29.99 30.181 40.721 20.21 15.777 34.246-14.243 41.888-24.867 6.552 2.241 9.116 2.948 15.044 6.571-.849 35.209 5.171 71.83 32.489 96.681 24.754 22.514 57.175 21.052 86.902 21.861 62.256 1.695 103.483-8.877 117.045-75.844 3.554-17.533 6.924-37.291 9.804-55.74 12.82-2.387 20.99-2.473 33.65-.172 9.13 26.947 27.86 140.531 18.7 165.172-8.22 22.095-83.037.223-97.829 7.71-3.055 1.546-5.044 4.188-5.978 7.45-1.727 6.031.316 13.772 3.516 18.981 5.346 8.7 15.218 13.694 24.864 16.019 27.537 6.635 73.847 8.662 98.767-7.033 28.33-17.84 26.77-52.376 33.29-81.24 41.71 7.241 116.95 13.234 150.78-18.608 25.69-24.181 28.95-60.253 29.81-93.581z"/><path fill="#002840" d="M911.74 1039.14c10.645.28 30.6 6.27 42.263 8.54a414.2 414.2 0 0 0 85.357 7.2c17.31-.59 34.56-2.27 51.65-5.01 18.41-3.02 36.52-9.4 55.07-9.95 2.1.24 6.45 3.74 7.46 5.43 7.89 13.11-4.36 25.88-13.59 32.71-10.65 6.09-25.66 10.49-37.47 13.38a317.3 317.3 0 0 1-148.897-.27c-18.419-4.62-60.339-13.9-52.654-41.7 1.393-5.04 6.341-8.17 10.811-10.33"/><path fill="#F2CA8E" d="M1215.32 501.928c6.92.628 40.91 25.978 42.63 32.273 8.14 29.753 7.91 62.775 12.97 93.464 5.49 33.268 14.64 64.06 24.8 96.16l-11.33 4.965c-6.56-15.977-11.94-27.893-28.44-36.366a86.2 86.2 0 0 0-24.35-8.078c-30.26-5.415-106.62-4.899-136.95 4.251-21.29 6.423-28.44 21.072-37.38 39.337-20.55-5.56-41.2-5.355-62.035-1.391-22.012-52.487-76.149-45.864-125.067-45.591-47.551.337-70.119 1.18-92.167 46.972-4.748-1.739-10.715-3.296-13.581-7.34-.602-8.044 13.249-52.231 15.934-65.624 9.282-46.303 10.982-88.595 20.201-135.107 37.209.245 79.681 12.758 117.174 17.89 73.979 10.127 159.561 11.333 231.851-10.196 23.24-6.919 43.36-17.641 65.74-25.619"/><path fill="#82A0A4" d="M892.917 326.646c15.339-5.567 35.653-8.659 51.863-11.193 79.6-12.444 162.92-2.972 236.64 30.045 27.12 12.144 65.11 39.647 47.63 74.393-14.07 27.968-55.71 43.808-83.57 53.203-75.7 23.891-161.836 22.229-239.334 8.449-37.628-6.691-70.657-17.531-110.13-14.963-22.899 1.37-39.798 4.136-52.596 25.54-11.728 19.614 2.963 39.852-.357 57.292-8.083 42.456-12.395 85.492-20.095 128.022-1.832 10.119-3.359 20.099-6.086 29.952-.916 3.129-2.176 5.814-5.121 7.295-5.611-2.961-6.97-16.914-8.332-23.291-11.703-54.803-18.048-115.146-9.759-170.731 5.584-29.95 20.979-66.165 49.211-81.326 17.459-9.375 18.493-12.659 29.149-29.006 15.106-23.176 31.546-44.464 56.57-57.547 4.507-2.356 18.178-10.832 22.912-11.437 10.359-5.577 30.067-11.531 41.405-14.697"/><path fill="#A3C0BE" d="m892.917 326.646-.001 1.279c-4.649 3.578-35.899 14.653-41.404 13.418 10.359-5.577 30.067-11.531 41.405-14.697"/><path fill="#002840" d="M864.602 373.189c8.832-.74 17.305.237 26.034 1.525 33.163 4.896 154.174 30.221 171.184 54.876 1.88 2.718 2.96 5.924 2.24 9.245-1.11 5.128-5.08 7.724-9.16 10.488-8.36 1.793-50-16.829-61.069-20.584-38.908-13.208-78.463-19.57-118.385-28.616-15.937-3.612-27.464-13.777-10.844-26.934"/><path fill="#0F4868" d="M1407.82 1335.48c17.61 5.88 42.77 17.98 60.02 26.05l74.61 34.99c44.06 20.89 111.99 46.48 145.81 81.31-9.14 17.03-29 41.51-41.18 56.63-54.82 68.02-119.36 123.49-192.24 171.59-22.67 16.71-55.47 33.56-80.33 47.03-11.5 6.24-24.09 11.34-35.53 18.14 20.27-44 40.95-87.07 62.73-130.63 5.28-10.56 43.94-85.06 39.04-92.48-12.76-19.31-43.92-38-57.16-60.54 13.09-6.19 66.3-36.29 66.68-46.68.49-13.18-35.66-93.14-42.45-105.41"/><path fill="#0F4868" d="m638.826 1339.08 1.011 1.34a2086 2086 0 0 0-25.406 55.12c-5.274 11.68-11.767 25.15-15.858 37.02 4.842 15.76 11.587 20.99 25.247 29.8 13.808 8.91 27.85 17.5 41.67 26.39-16.086 23.01-40.154 41.86-55.32 62.04 7.721 34.54 35.666 83.12 51.34 116.69l26.374 56.99c6.282 13.88 12.235 28.29 19.585 41.57-9.815-3.42-20.872-9.14-30.321-13.75a747 747 0 0 1-84.245-47.66 808.1 808.1 0 0 1-227.255-225.23c50.39-36.46 79.065-47.8 133.881-74.7 45.883-23.02 92.33-44.9 139.297-65.62"/><path fill="#0F4868" d="M754.735 1267.89c7.817 11.53 7.108 43.27 9.376 57.35 15.135 93.95 43.897 184.38 65.927 276.57 18.267 76.45 45.097 146.87 69.387 221.17-40.77-6.38-85.554-20.74-124.897-33.29-6.075-1.94-6.865-4.95-9.084-10.43-13.585-31.33-29.956-60.51-44.393-91.2-19.994-42.49-41.826-84.65-60.477-127.66 13.953-21.22 38.56-41.91 56.883-60.13 6.313-6.27 13.588-12.63 18.773-19.86 1.947-2.72 3.091-5.06 2.271-8.54-3.312-14.06-62.486-39.56-76.373-49.05-2.711-1.85-5.06-3.85-5.484-7.27-.549-4.42 3.944-12.11 5.609-16.2 20.101-49.48 55.291-93.51 92.482-131.46"/><path fill="#0F4868" d="M1295.33 1266.64c15.08 7.98 61.64 75.69 70.65 92.19 9.27 16.98 21.67 48.74 28.73 67.16l-2.31 1.17c-13.06 6.71-86.04 41.01-69.22 59.27 17.24 18.7 52.26 42.57 65.17 65.94-5.11 16.27-25.52 56.54-33.73 73.38l-32.57 67.37c-14.79 29.82-29.16 57.29-43.12 87.79l-5 9.17c-11.17 4.44-27.79 8.78-39.58 12.41-26.81 8.27-53.32 16.18-81.16 20.18 15.23-47.06 34.61-102.82 47.66-149.71 7.66-27.91 14.99-55.9 22-83.98 3.35-13.87 5.79-28.91 9.71-42.51 25.81-89.6 56.29-186.63 62.77-279.83"/><path fill="#0A7CC1" d="M1002.24 1533.86c18.5.58 28.75 1.61 48.26.6 14.41 97.52 29.46 194.94 45.12 292.26-15.72 1.84-30.57 2.99-46.37 4.13-35.82 1.27-58.567-.29-94.329-3.34 13.383-72.17 22.85-147.59 35.652-220.03 4.215-23.85 6.809-50.21 11.667-73.62"/><path fill="#F2CA8E" d="M1168.39 736.447c16.1-.324 71.17.89 79.61 10.718 12.74 14.825 6.08 86.037-9.97 101.919-12.8 12.667-40.02 13.008-55.63 13.864-18.08.057-56.22.626-70.45-11.809-15.35-13.426-24.68-89.706-11.15-105.445 7.82-9.087 52.32-8.747 67.59-9.247"/><path fill="#002840" d="M1164.09 763.369c48.69-3.218 36.45 42.338 7.68 54.287-8.19.793-12.84 1.168-19.83-4.126-11.04-8.366-18.74-29.62-9.57-41.695 5.36-7.057 13.5-7.588 21.72-8.466"/><path fill="#F2CA8E" d="M865.711 736.431c13.56-1.216 78.576-1.598 86.706 7.828 15.339 17.782 6.793 85.365-7.971 104.358-7.865 10.118-30.788 12.552-43.198 13.361-18.021 1.124-61.717 2.951-76.169-9.533-19.682-17.004-28.459-83.043-13.268-104.824 6.427-9.217 41.854-10.284 53.9-11.19"/><path fill="#002840" d="M880.928 763.324c14.847-.891 24.153-.285 32.881 12.807.891 17.998-2.405 35.663-21.818 41.87-23.695.781-42.595-24.141-30.115-46.344 3.247-5.777 12.713-7.485 19.052-8.333"/><path fill="#82A0A4" d="M1286.13 423.832c40.32 25.299 60.82 60.844 69.23 107.999 2.07 11.624.32 26.768.32 38.792-.01 37.475-4.14 73.878-12.15 110.476-.98 4.488-2.76 18.938-5.02 21.883-2.19-2.156-1.95-4.183-2.78-7.807-5.8-23.937-9.3-47.49-12.9-71.767-6.18-41.825-3.89-86.305-28.54-122.457-11.07-16.237-22.24-25.126-36.94-37.887 14.75-14.308 20.42-20.825 28.78-39.232"/><path fill="#0A7CC1" d="M1027.38 1377.89c18.35.27 42.16 37.57 54.46 50.89-4.77 17.18-15.43 42.15-22.24 59.25l-29.1-.11-36.448.05-20.176-54.18c9.266-15.59 36.824-48.06 53.504-55.9"/><path fill="#F16930" d="M994.377 1302.04c3.983-.04 9.173.5 13.253.91 25.1 2.59 49.38.89 74.42-1.27-5.66 3.86-11.73 7.71-17.48 11.48-9.23 5.6-18.25 11.52-27.07 17.75a1584 1584 0 0 1-43.123-28.87"/></svg>